<svg width="127" height="40" viewBox="0 0 127 40" fill="none" xmlns="http://www.w3.org/2000/svg">
<g id="logo-new">
<g id="logo">
<mask id="mask0" style="mask-type:alpha" maskUnits="userSpaceOnUse" x="0" y="0" width="41" height="40">
<ellipse id="Ellipse" cx="20.1553" cy="20" rx="20.1553" ry="20" fill="#1ABCFE"/>
</mask>
<g mask="url(#mask0)">
<ellipse id="Ellipse_2" cx="20.1553" cy="20" rx="20.1553" ry="20" fill="#A259FF"/>
<path id="Polygon" d="M11.2552 18.3985L29.088 18.3985L20.242 27.9923L11.2552 18.3985Z" fill="white"/>
<rect id="Rectangle" width="17.9919" height="44.8334" transform="matrix(0.740929 0.671584 -0.67727 0.735735 41.1836 5.19482)" fill="#1ABCFE"/>
<rect id="Rectangle_2" width="17.9919" height="57.0276" transform="matrix(-0.740929 0.671584 0.67727 0.735735 -0.629883 5.36816)" fill="#6D00FF"/>
<path id="Intersect" d="M32.4242 41.2751L24.1501 50.2634L10.8193 38.1803L20.1974 27.9927L32.4242 41.2751Z" fill="#0ACF83"/>
</g>
</g>
<g id="FIGMA">
<path d="M50.6533 17.9845V2.35228H59.5848V5.21928H53.7403V8.71856H58.7169V11.5965H53.7403V17.9845H50.6533Z" fill="#547091"/>
<path d="M63.0769 17.9845V2.35228H66.1639V17.9845H63.0769Z" fill="#547091"/>
<path d="M69.9527 10.1466C69.9527 8.60591 70.2859 7.22146 70.9524 5.99327C71.6189 4.76507 72.5527 3.80577 73.7538 3.11536C74.9549 2.41768 76.3135 2.06885 77.8295 2.06885C79.763 2.06885 81.3413 2.5485 82.5644 3.5078C83.7875 4.45984 84.6151 5.75707 85.0472 7.39952H81.6526C81.052 5.74981 79.752 4.92495 77.7526 4.92495C76.3977 4.92495 75.2955 5.4155 74.4459 6.39661C73.5963 7.37771 73.1715 8.62771 73.1715 10.1466C73.1715 11.6873 73.6036 12.9518 74.4679 13.9402C75.3394 14.9213 76.4819 15.4119 77.8954 15.4119C79.0453 15.4119 79.9717 15.1502 80.6748 14.627C81.3852 14.1037 81.7771 13.3625 81.8503 12.4032H78.0932V9.54705H85.157V10.9097C85.157 12.4431 84.8494 13.7694 84.2342 14.8886C83.6263 16.0078 82.7768 16.8545 81.6855 17.4286C80.6016 17.9954 79.3382 18.2789 77.8954 18.2789C76.3574 18.2789 74.9805 17.93 73.7648 17.2324C72.5563 16.5274 71.6189 15.5572 70.9524 14.3218C70.2859 13.0863 69.9527 11.6946 69.9527 10.1466Z" fill="#547091"/>
<path d="M89.2424 17.9845V2.35228H92.8018L97.306 12.425L97.6356 13.3407L97.9981 12.425L102.524 2.35228H106.095V17.9845H102.997V8.09719L102.546 9.45984L98.9648 17.9845H96.3612L92.7798 9.45984L92.3294 8.09719V17.9845H89.2424Z" fill="#547091"/>
<path d="M109.356 17.9845L115.453 2.35228H118.848L124.945 17.9845H121.594L120.287 14.5289H114.014L112.707 17.9845H109.356ZM114.981 11.8472H119.298L117.431 6.95257L117.134 6.08048L116.848 6.95257L114.981 11.8472Z" fill="#547091"/>
</g>
<g id="FREEBIES">
<path d="M50.6221 38.4495V24.5542H58.1608V26.2402H52.4384V30.6298H57.3014V32.3352H52.4384V38.4495H50.6221Z" fill="#547091"/>
<path d="M60.2505 38.4495V24.5542H64.0687C65.4683 24.5542 66.5816 24.9353 67.4083 25.6976C68.2351 26.4599 68.6485 27.4773 68.6485 28.7499C68.6485 29.6608 68.4142 30.4457 67.9454 31.1046C67.4832 31.757 66.8322 32.2286 65.9924 32.5193L69.2442 38.4495H67.1642L64.1077 32.81H62.0668V38.4495H60.2505ZM62.0668 31.1821H64.0687C64.9085 31.1821 65.5725 30.9657 66.0608 30.5329C66.5555 30.0936 66.8029 29.4993 66.8029 28.7499C66.8029 27.9683 66.5555 27.3546 66.0608 26.9088C65.5725 26.4631 64.9085 26.2402 64.0687 26.2402H62.0668V31.1821Z" fill="#547091"/>
<path d="M71.207 38.4495V24.5542H78.9019V26.2402H73.0233V30.4553H78.2086V32.1414H73.0233V36.7635H78.9019V38.4495H71.207Z" fill="#547091"/>
<path d="M81.4018 38.4495V24.5542H89.0967V26.2402H83.2181V30.4553H88.4034V32.1414H83.2181V36.7635H89.0967V38.4495H81.4018Z" fill="#547091"/>
<path d="M91.5966 38.4495V24.5542H95.4929C96.8405 24.5542 97.9081 24.8966 98.6959 25.5813C99.4836 26.2596 99.8774 27.1769 99.8774 28.3333C99.8774 29.58 99.3762 30.5232 98.3736 31.1627C99.1223 31.4276 99.7017 31.8539 100.112 32.4418C100.528 33.0232 100.737 33.7015 100.737 34.4767C100.737 35.6782 100.32 36.6407 99.4868 37.3643C98.6535 38.0878 97.5306 38.4495 96.1179 38.4495H91.5966ZM93.4129 36.7635H96.1179C96.9707 36.7635 97.6412 36.56 98.1295 36.153C98.6243 35.7396 98.8716 35.1679 98.8716 34.4379C98.8716 33.7338 98.6275 33.1847 98.1393 32.7906C97.6575 32.3966 96.9837 32.1995 96.1179 32.1995H93.4129V36.7635ZM93.4129 30.5329H95.571C96.3197 30.5329 96.9154 30.3423 97.358 29.9612C97.8072 29.5736 98.0318 29.0632 98.0318 28.4302C98.0318 27.726 97.8072 27.1866 97.358 26.8119C96.9154 26.4308 96.2936 26.2402 95.4929 26.2402H93.4129V30.5329Z" fill="#547091"/>
<path d="M103.022 38.4495V24.5542H104.838V38.4495H103.022Z" fill="#547091"/>
<path d="M107.963 38.4495V24.5542H115.658V26.2402H109.779V30.4553H114.965V32.1414H109.779V36.7635H115.658V38.4495H107.963Z" fill="#547091"/>
<path d="M117.416 34.3604H119.251C119.265 35.2325 119.518 35.9075 120.013 36.3856C120.508 36.8636 121.195 37.1026 122.074 37.1026C122.861 37.1026 123.47 36.8959 123.9 36.4825C124.336 36.0626 124.554 35.5006 124.554 34.7964C124.554 34.215 124.333 33.737 123.89 33.3623C123.454 32.9812 122.695 32.6065 121.615 32.2383C120.319 31.7603 119.359 31.2305 118.734 30.6491C118.122 30.0548 117.816 29.228 117.816 28.1685C117.816 27.0574 118.168 26.1304 118.871 25.3875C119.593 24.664 120.589 24.3022 121.859 24.3022C123.115 24.3022 124.105 24.6446 124.827 25.3294C125.55 26.0077 125.924 26.9734 125.95 28.2267H124.115C124.102 27.5096 123.887 26.9476 123.47 26.5406C123.06 26.1336 122.51 25.9302 121.82 25.9302C121.156 25.9302 120.628 26.1143 120.238 26.4825C119.847 26.8507 119.652 27.3675 119.652 28.0329C119.652 28.653 119.847 29.1343 120.238 29.4767C120.648 29.8061 121.38 30.1776 122.435 30.591C123.887 31.1336 124.906 31.6957 125.491 32.2771C126.09 32.8714 126.393 33.6724 126.4 34.6802C126.4 35.9075 126.002 36.8862 125.208 37.6162C124.414 38.3462 123.363 38.7112 122.054 38.7112C120.628 38.7112 119.505 38.3203 118.685 37.5387C117.865 36.757 117.442 35.6976 117.416 34.3604Z" fill="#547091"/>
</g>
</g>
</svg>
